<svg class="svg-icon" style="width: 1em; height: 1em;vertical-align: middle;fill: black;overflow: hidden;" viewBox="0 0 1024 1024" version="1.1" xmlns="http://www.w3.org/2000/svg"><path d="M852 667.8c-14.4-27.3-34.9-51.7-61-72.5-24.6-19.7-53-35.2-83.8-46.1 39.9-32.3 65.4-81.6 65.4-136.8 0-97-78.9-175.9-175.9-175.9-16.6 0-30 13.4-30 30s13.4 30 30 30c63.9 0 115.9 52 115.9 115.9 0 63.9-52 115.9-115.9 115.9-16.6 0-30 13.4-30 30V561.2c-9.5-4.5-19.2-8.5-29.2-12.1 39.9-32.3 65.4-81.6 65.4-136.8 0-97-78.9-175.9-175.9-175.9s-175.9 78.9-175.9 175.9c0 55.2 25.6 104.5 65.4 136.8-30.8 10.9-59.2 26.4-83.8 46.1-26 20.8-46.5 45.2-61 72.5-15.2 28.8-23 59.6-23 91.3 0 16.6 13.4 30 30 30s30-13.4 30-30c0-43.7 21.8-85.3 61.4-117 41.6-33.3 97.2-51.6 156.7-51.6S542 608.7 583.5 642c39.6 31.7 61.4 73.2 61.4 117 0 16.6 13.4 30 30 30s30-13.4 30-30c0-31.7-7.7-62.5-23-91.3-14.4-27.3-34.9-51.7-61-72.5-1.7-1.4-3.5-2.7-5.2-4.1 52.1 3.5 100.4 21.3 137.4 50.9 39.6 31.7 61.4 73.2 61.4 117 0 16.6 13.4 30 30 30s30-13.4 30-30c0.5-31.6-7.2-62.3-22.5-91.2zM427.2 296.5c63.9 0 115.9 52 115.9 115.9 0 63.9-52 115.9-115.9 115.9s-115.9-52-115.9-115.9c0-63.9 52-115.9 115.9-115.9z"  /></svg>