<svg width="300" height="300" viewBox="0 0 300 300" fill="none" xmlns="http://www.w3.org/2000/svg">
<path d="M150 290.625C227.665 290.625 290.625 227.665 290.625 150C290.625 72.335 227.665 9.375 150 9.375C72.335 9.375 9.375 72.335 9.375 150C9.375 227.665 72.335 290.625 150 290.625Z" stroke="#343330" stroke-width="2" stroke-miterlimit="10" stroke-linejoin="round"/>
<path d="M243.75 253.125C243.75 201.347 201.778 159.375 150 159.375C98.2219 159.375 56.25 201.347 56.25 253.125" stroke="#343330" stroke-width="2" stroke-miterlimit="10" stroke-linejoin="round"/>
<path d="M150 159.375C181.066 159.375 206.25 134.191 206.25 103.125C206.25 72.059 181.066 46.875 150 46.875C118.934 46.875 93.75 72.059 93.75 103.125C93.75 134.191 118.934 159.375 150 159.375Z" stroke="#343330" stroke-width="2" stroke-miterlimit="10" stroke-linejoin="round"/>
<rect x="228.5" y="235.5" width="37" height="35" rx="17.5" fill="white"/>
<rect x="228.5" y="235.5" width="37" height="35" rx="17.5" fill="black" fill-opacity="0.2"/>
<path d="M240.23 245.75H239.384C238.917 245.75 238.538 246.086 238.538 246.5H241.077C241.077 246.086 240.697 245.75 240.23 245.75Z" fill="#343330"/>
<path d="M247 257C249.337 257 251.231 255.321 251.231 253.25C251.231 251.179 249.337 249.5 247 249.5C244.664 249.5 242.77 251.179 242.77 253.25C242.77 255.321 244.664 257 247 257Z" fill="#343330"/>
<path d="M256.308 247.25H252.7C252.058 247.25 251.473 246.929 251.186 246.421L250.853 245.829C250.566 245.321 249.979 245 249.339 245H244.661C244.02 245 243.434 245.321 243.147 245.829L242.814 246.421C242.527 246.929 241.941 247.25 241.3 247.25H237.692C236.757 247.25 236 247.921 236 248.75V258.5C236 259.329 236.757 260 237.692 260H256.308C257.243 260 258 259.329 258 258.5V248.75C258 247.921 257.243 247.25 256.308 247.25ZM247 258.5C243.734 258.5 241.077 256.145 241.077 253.25C241.077 250.355 243.734 248 247 248C250.266 248 252.923 250.355 252.923 253.25C252.923 256.145 250.266 258.5 247 258.5ZM254.615 250.25C254.148 250.25 253.769 249.914 253.769 249.5C253.769 249.086 254.148 248.75 254.615 248.75C255.082 248.75 255.462 249.086 255.462 249.5C255.462 249.914 255.082 250.25 254.615 250.25Z" fill="#343330"/>
<rect x="228.5" y="235.5" width="37" height="35" rx="17.5" stroke="#343330"/>
</svg>
