<svg width="300" height="300" viewBox="0 0 300 300" fill="none" xmlns="http://www.w3.org/2000/svg">
<path d="M237.516 48.5508H61.7344C58.2379 48.5508 54.8846 49.9398 52.4122 52.4122C49.9398 54.8846 48.5508 58.2379 48.5508 61.7344V237.516C48.5508 241.012 49.9398 244.365 52.4122 246.838C54.8846 249.31 58.2379 250.699 61.7344 250.699H237.516C241.012 250.699 244.365 249.31 246.838 246.838C249.31 244.365 250.699 241.012 250.699 237.516V61.7344C250.699 58.2379 249.31 54.8846 246.838 52.4122C244.365 49.9398 241.012 48.5508 237.516 48.5508ZM57.3398 237.516V61.7344C57.3398 60.5689 57.8028 59.4511 58.627 58.627C59.4511 57.8028 60.5689 57.3398 61.7344 57.3398H237.516C238.681 57.3398 239.799 57.8028 240.623 58.627C241.447 59.4511 241.91 60.5689 241.91 61.7344V157.315L207.292 122.687C206.067 121.457 204.612 120.482 203.01 119.817C201.407 119.151 199.689 118.809 197.954 118.809C196.219 118.809 194.501 119.151 192.898 119.817C191.296 120.482 189.84 121.457 188.615 122.687L69.4248 241.91H61.7344C60.5689 241.91 59.4511 241.447 58.627 240.623C57.8028 239.799 57.3398 238.681 57.3398 237.516ZM237.516 241.91H81.8833L194.856 128.938C195.264 128.529 195.749 128.205 196.282 127.984C196.815 127.763 197.387 127.649 197.965 127.649C198.542 127.649 199.114 127.763 199.648 127.984C200.181 128.205 200.666 128.529 201.074 128.938L241.91 169.774V237.516C241.91 238.681 241.447 239.799 240.623 240.623C239.799 241.447 238.681 241.91 237.516 241.91ZM114.469 136.441C118.815 136.441 123.063 135.153 126.676 132.738C130.289 130.324 133.106 126.892 134.769 122.877C136.432 118.862 136.867 114.444 136.019 110.182C135.171 105.92 133.079 102.005 130.006 98.9317C126.933 95.8588 123.018 93.7661 118.755 92.9183C114.493 92.0705 110.075 92.5056 106.06 94.1687C102.045 95.8317 98.6135 98.648 96.1992 102.261C93.7848 105.875 92.4961 110.123 92.4961 114.469C92.4961 120.296 94.8111 125.885 98.9317 130.006C103.052 134.126 108.641 136.441 114.469 136.441ZM114.469 101.285C117.076 101.285 119.625 102.058 121.793 103.507C123.961 104.956 125.651 107.015 126.649 109.424C127.647 111.833 127.908 114.483 127.399 117.041C126.89 119.598 125.635 121.947 123.791 123.791C121.947 125.635 119.598 126.89 117.041 127.399C114.483 127.908 111.833 127.647 109.424 126.649C107.015 125.651 104.956 123.961 103.507 121.793C102.058 119.625 101.285 117.076 101.285 114.469C101.285 110.972 102.674 107.619 105.147 105.147C107.619 102.674 110.972 101.285 114.469 101.285Z" fill="#343330"/>
</svg>
